<?xml version="1.0" encoding="utf-8"?>
<!-- Generator: Adobe Illustrator 22.0.1, SVG Export Plug-In . SVG Version: 6.00 Build 0)  -->
<svg version="1.1" id="Layer_1" xmlns="http://www.w3.org/2000/svg" xmlns:xlink="http://www.w3.org/1999/xlink" x="0px" y="0px"
	 viewBox="0 0 506.6 712.5" style="enable-background:new 0 0 506.6 712.5;" xml:space="preserve">
<style type="text/css">
	.st0{fill:#FAFCFA;}
</style>
<path class="st0" d="M255.6,22.2c1.1,1.9,2.1,3.8,3.2,5.7h-6.4C253.4,26,254.5,24.1,255.6,22.2L255.6,22.2z"/>
<path class="st0" d="M243.5,25.5c1.8,1.1,3.7,2.2,5.5,3.3c-1.8,1.1-3.7,2.2-5.5,3.3V25.5z"/>
<path class="st0" d="M262.1,28.8c1.8-1.1,3.7-2.2,5.5-3.3v6.6C265.7,31,263.9,29.9,262.1,28.8z"/>
<path class="st0" d="M251.9,30.5c9.5-2.6,19.6,5.4,20,15.1c1.1,9.2-6.8,18.5-16.2,18.3c-8.8,0.4-16.5-7.7-16.5-16.3
	C238.7,39.8,244.3,32.2,251.9,30.5z"/>
<path class="st0" d="M234.7,34.6h6.4c-1.1,1.9-2.1,3.8-3.2,5.7C236.9,38.4,235.8,36.5,234.7,34.6z"/>
<path class="st0" d="M270,34.6c2.2,0,4.5,0.2,6.7-0.3c-1.1,2-2.4,3.9-3.5,6C272.1,38.4,271,36.5,270,34.6z"/>
<path class="st0" d="M231.5,47c1.8-1.1,3.7-2.2,5.5-3.3v6.6C235.2,49.2,233.4,48.1,231.5,47z"/>
<path class="st0" d="M274.1,43.7c1.8,1.1,3.7,2.2,5.5,3.3c-1.8,1.1-3.7,2.2-5.5,3.3V43.7z"/>
<path class="st0" d="M237.9,53.7c1.1,1.9,2.1,3.8,3.2,5.7h-6.4C235.8,57.5,236.9,55.6,237.9,53.7z"/>
<path class="st0" d="M273.2,53.7c1.1,1.9,2.1,3.8,3.2,5.7H270C271.1,57.5,272.1,55.6,273.2,53.7L273.2,53.7z"/>
<path class="st0" d="M201.6,110.8c8.9-16.6,17.7-33.1,26.9-49.5c6.4,8.4,12.7,16.8,19,25.2c-9.5,16-18.8,32-28.2,48.1
	C213.5,126.6,207.6,118.7,201.6,110.8z"/>
<path class="st0" d="M262.1,65.2c1.8-1.1,3.7-2.2,5.5-3.3v6.6C265.7,67.4,263.9,66.3,262.1,65.2z"/>
<path class="st0" d="M260.4,88c6.6-8.9,13.2-17.8,20.1-26.5c8.8,15.8,17.5,31.7,25.9,47.7c-6.3,8.5-12.7,17-19.2,25.3
	C278.6,118.8,269.5,103.4,260.4,88z"/>
<path class="st0" d="M243.5,61.9c1.8,1.1,3.7,2.2,5.5,3.3c-1.8,1.1-3.7,2.2-5.5,3.3C243.5,68.5,243.5,61.9,243.5,61.9z"/>
<path class="st0" d="M252.4,66.1h6.4c-1.1,1.9-2.1,3.8-3.2,5.7C254.5,69.9,253.4,68,252.4,66.1z"/>
<path class="st0" d="M247.6,115.1c7.3-1.4,15.2,0.5,20.7,5.6c7,6.2,9.3,16.9,5.4,25.3c-4.1,9.6-15.4,15.1-25.5,13
	c-7.1-1.3-13.2-6.1-16.5-12.5c2.9,1.6,6.1,2.7,9.5,2.6c6.7,0.1,13.3-3.9,16.2-9.9c2.8-5.5,2.1-12.4-1.4-17.4
	C254,118.8,250.9,116.7,247.6,115.1L247.6,115.1z"/>
<path class="st0" d="M295.5,140.7c5.5-7,10.7-14.4,16.4-21.3c8.4,16.1,16.7,32.3,24.8,48.5c-6,8-11.9,16.2-18.2,24
	c-8-15.2-16-30.4-24.5-45.3C292.8,144.6,294.2,142.3,295.5,140.7L295.5,140.7z"/>
<path class="st0" d="M172.3,167.8c7.9-15.7,15.8-31.4,24-46.9c5.9,7.9,12.3,15.5,17.6,23.8c-8.1,15.2-16.7,30.2-24.4,45.6
	C183.4,183,177.9,175.4,172.3,167.8L172.3,167.8z"/>
<path class="st0" d="M278.6,163.6c8.5,16.1,17.2,32.2,25.1,48.6c-6.3,8-12.2,16.5-18.7,24.4c-3.5-5.3-6.1-11.2-8.9-16.9
	c-5.3-10.5-11.1-20.6-16.4-31.1C265.9,180.3,272.1,171.8,278.6,163.6z"/>
<path class="st0" d="M205,211.3c7.9-15.7,15.8-31.3,24.3-46.7c6.1,8,12.1,16.1,18.2,24.1c-5.3,10.4-11.2,20.5-16.4,31
	c-2.7,5.2-5.2,10.4-8,15.5C216.8,227.4,211,219.3,205,211.3L205,211.3z"/>
<path class="st0" d="M139.5,238.1c8.7-20.1,18-39.9,27.6-59.6c5,6.1,9.7,12.4,14.4,18.7c1.1,1.6,2.7,3.6,1.4,5.5
	c-15,29.6-29.5,59.5-41.3,90.5c-5.6,15-10.8,30.2-13.4,46c-0.6,8.5-0.9,17.1-0.2,25.6c0.6,7.6,2.6,14.9,4.4,22.2
	c-7.1,4-14.2,8.1-21.3,12.1c-4.5-16.1-7.3-32.8-6.3-49.5c0.5-11,3.1-21.7,5.8-32.3C117.8,290.1,128.5,264,139.5,238.1L139.5,238.1z"
	/>
<path class="st0" d="M323.9,202.3c6-7.9,11.7-16,18.1-23.6c18.5,38.3,36.4,77,50,117.4c5.8,17.2,10.7,34.8,12.3,52.8
	c0.9,16.8-1.6,33.7-6.5,49.7c-7.5-4.3-14.9-8.8-22.7-12.6c3.3-13.2,5.1-26.8,4.2-40.4c-0.7-13.3-4.8-26.1-8.9-38.7
	C357.9,270.8,341.3,236.2,323.9,202.3L323.9,202.3z"/>
<path class="st0" d="M199.8,221.8c6.2,7.9,12.2,15.9,18.1,24c-5.4,11.4-10.9,22.8-15.7,34.4c2.8,2.9,6.4,4.9,9.5,7.5
	c2,1.8,4.5,2.5,7,3.3c1.6-4.9-0.1-10.4,2.2-15.1c1.1,3,1.6,6.2,2.7,9.3c0.8,1.8,2.6,4,4.8,3.3c-0.7-2.3-2.5-4.1-3.1-6.5
	c-1.2-4.1-3-8.1-3.4-12.4c0.5-2,1.4-3.8,2.2-5.7s2.5-3.2,3.4-5.1c0.5-1.8,0.5-3.7,1.3-5.5c0.8-2.1,3.1-3.4,3.7-5.6
	c0.7-2.3,0.9-4.8,1.9-7.1c0.4,4.1-0.6,8.5,0.9,12.5c0.5,1.9-0.2,3.9-0.2,5.9c-0.1,3.7-4.1,6.1-3.7,9.9c-0.4,3.1,1.2,5.9,2.1,8.8
	c1,3.7,1.4,7.6,2.7,11.2c1.9,9.9-4,22.1-14.5,24c-1.1-0.5-2.3-1.5-3.6-0.8c-1.9,0.7-3.9,0.5-5.9,0.3c-1.5-2-2.9-4.8-5.6-5.3
	c-0.5,0.5-1,1-1.4,1.5c-3,1.4-6,2.8-9.2,4c-2.2,0-4.1-1.1-5.7-2.5c-2.4,7.1-4.8,14.2-5.9,21.6c-1.9,11.2-1,22.7,1.7,33.7
	c-10.2,2.8-20.1,6.5-29.9,10.4c-2.8-13.1-3.8-26.7-1.1-39.9c3.1-15.4,8.3-30.3,13.9-45C178.2,267.3,188.8,244.4,199.8,221.8
	L199.8,221.8z"/>
<path class="st0" d="M405.2,283.5c-6.6-18.8-15.2-36.9-22-55.7c5.8,11.1,10.8,22.5,16,33.9c10.7,24,20.9,48.1,29.6,72.9
	c6.8,19.6,13,39.4,16.4,59.8c2.1,12.7,1.4,25.5,1,38.3c-10.4-7.9-20.6-16.1-31.4-23.5c3.7-13.2,7.1-26.7,7.5-40.4
	c0.3-4.2-0.3-8.4,0.1-12.6c0.5-11-2.1-21.8-4.6-32.4C414.2,310.2,409.9,296.8,405.2,283.5z"/>
<path class="st0" d="M109.2,263.8c5.2-11.4,10-23,16-34c-5.4,14.9-12.1,29.3-17.7,44.2c-8.6,23.3-16.8,46.9-20.3,71.6
	c-0.7,9.2-0.7,18.4-0.2,27.6c0.7,12.5,3.9,24.7,7.3,36.7c-10.7,7.5-21,15.6-31.3,23.5c-0.6-13.4-1.2-27,1.2-40.3
	c2.7-15.5,7-30.7,11.9-45.7C85.4,319,96.9,291.2,109.2,263.8L109.2,263.8z"/>
<path class="st0" d="M253.6,233.2c0.9-0.5,1.9-0.3,2.9-0.3c1-0.5,2.1-0.6,3.2-0.4c-2.5,0.7-2.5,3.2-2.7,5.3l-1.6,1.6
	C254.7,237.4,253.4,235.4,253.6,233.2L253.6,233.2z"/>
<path class="st0" d="M243.2,234.7c1.9-0.2,3.6-0.8,5.5-1.2c0.5,0.3,0.9,0.6,1.4,0.9c0.5-0.2,1.4-0.7,1.9-1c-0.4,0.8-0.9,1.7-1.3,2.5
	c0.2,0.8,0.5,1.6,0.8,2.4c0.4,0.2,1.2,0.7,1.5,0.9c-1.1,2.3-1.4,4.9-0.9,7.5c-0.4-1.6-0.9-3.1-1.4-4.7c0.3,4.1-0.8,8.1-1.4,12.1
	c-0.3,0.2-0.7,0.5-1,0.7l-1.2,2.7l-1.5-2.1c-0.8,5.1-0.8,10.3-2.9,15.1c-1.7,3.5-2.2,7.8-5.6,10.1c0.3-2.1,1-4.1,1.2-6.2
	c0.2-1.3,0.1-2.8,1-3.9c0.3-2,0.4-4-0.4-5.8c-1-2.1,0.7-4.3,0.1-6.5c-0.8,2.2-1.3,4.6-2.8,6.5c-0.5-2.8,1-5.4,0.9-8.2
	c0-3.2,1.5-6.3,1.2-9.4c-0.4-0.1-1.1-0.3-1.4-0.3c0.3-2.1,0.1-4.1-0.3-6.2c-0.5,0.3-1.4,0.8-1.8,1.1c1-2.2,2-4.6,3.6-6.4
	C239.9,234.5,241.6,234.9,243.2,234.7L243.2,234.7z"/>
<path class="st0" d="M295.6,363.8l-8.4-0.8l-9.7-0.3c0.4-7-1.3-14.1-5.5-19.8c-3.8-5.2-9.8-9-16.4-9.2c-6.4-0.4-12.7,2.8-16.8,7.6
	c-5.1,5.8-7.3,13.8-6.8,21.4l-18.1,1c4.5-6.6,9.5-12.8,14.1-19.3c8.9-12.1,17.9-24,26.7-36.1c11.9,16.4,24.1,32.5,36.1,48.8
	C292.5,359.4,294.3,361.4,295.6,363.8L295.6,363.8z"/>
<path class="st0" d="M237,318.5c0.3,1,0.4,2.2,1.1,3c0.9,0.6,2,0.9,3,1.3c-1,0.4-2.1,0.7-3,1.3c-0.7,0.8-0.8,2-1.1,3
	c-0.3-1-0.5-1.9-0.8-2.9c-1.1-0.5-2.2-1-3.3-1.4c1.1-0.5,2.3-0.8,3.2-1.5C236.4,320.4,236.7,319.4,237,318.5L237,318.5z"/>
<path class="st0" d="M272.3,321.3c0.4-0.9,0.7-1.9,1-2.8c0,2.5,1.9,3.9,4.2,4.4c-2.2,0.4-4.1,1.8-4.2,4.2c-0.1-2.4-1.9-3.8-4.1-4.3
	C270.2,322.4,271.4,322.1,272.3,321.3L272.3,321.3z"/>
<path class="st0" d="M254.1,351.3c0.3-1.4,0.7-2.8,1.2-4.2c1.3,3.3,3.2,6.3,4.3,9.7c-0.6,2.6-2.7,4.6-5.2,5.3
	c-3.3-1.6-4-5.4-4.5-8.7l1.2,1.2c0.6-1.9,1.2-3.8,1.7-5.7C253.3,349.7,253.7,350.5,254.1,351.3L254.1,351.3z"/>
<path class="st0" d="M261.2,359.8c0.3,0.7,0.5,1.4,0.8,2.1c-1.4,0.8-2.7,1.6-4,2.5c1.3,0.6,2.7,1.3,4.1,1.9l-1.5,3
	c-1.9-1.2-3.8-2.2-5.7-3.3c-1.9,1.1-3.8,2.2-5.8,3.3c-0.4-1-1-2-1.5-3c1.4-0.7,2.8-1.3,4.2-2c-1.4-0.8-2.9-1.7-4.3-2.5
	c0.5-0.5,0.7-1.5,1.5-1.6c2,0.7,3.9,1.8,5.8,2.7C257,361.9,259.1,360.9,261.2,359.8z"/>
<path class="st0" d="M275.3,307.1l2.6-0.8c-0.7,2.2-0.1,4.4,1,6.4c2.2-0.7,4.4-1.6,6.6-2.5c-0.4-2.9-1.1-5.7-1.9-8.5
	c-0.4-1.6-1.7-2.8-1.9-4.4c-1.4-0.5-2.9-0.5-4.4-0.4c0.1-0.3,0.2-0.9,0.3-1.3c3.2,0.3,5.8-1.8,8.7-2.7c1.1-1.4,2.5-2.4,4-3.2
	c0.6-1.1,1.7-2.1,3-2.1c5.3-0.4,10.6,0.8,15.7,2.5c5.3,13,10.3,26.2,13.2,40c1.9,11.4,1.6,23.3-1.3,34.5c10.6,2.8,21,6.4,31.2,10.4
	c1.5-7.5,2.7-15.1,2.9-22.8c0-5.6-0.9-11.1-1.9-16.5c-2.7-13.6-7.1-26.8-12-39.8c-9.3-25.1-20.7-49.3-32.2-73.4
	c-6.6,8.2-12.9,16.6-19,25.2c2,4.1,4,8.1,5.9,12.2c-3.4,0.5-6.7-0.6-10.1-0.4c-2-1.8-2.3-4.6-3.9-6.7c-1.7-2-3.6-3.8-5-6.1
	c-1.2-3.1-2.8-6.4-5.7-8.3c-1.8-1.2-3-2.9-4.4-4.6c-0.3-0.1-0.9-0.3-1.2-0.4c-0.8-0.9-1.9-1.7-3.2-1.6c-1.6-0.2-2.3,1.5-3,2.6
	c0.8,0.1,1.7,0.2,2.5,0.3c0.7,1.7,1.4,3.4,2.3,5c0.4-0.8,0.8-1.5,1.1-2.3c1.1,3.1,1.2,6.4,0.3,9.6c-2.3-1.5-2-4.4-2.4-6.8
	c-0.9-1.5-1.8-3-2.2-4.8c-0.4,0.9-0.8,1.8-1.4,2.7c0.9,3.6,2.1,7,3.5,10.4c-1.2,0.5-2.8,1.7-2,3.2c1.2,2.4,2,5.1,3.6,7.3
	c-0.3,2.6-0.8,5.4,0.3,7.9c0.4,1.1,1.3,2.1,1.5,3.2c-0.3,3.4-0.8,6.7-1.6,10.1c0.9,5.9-1.9,11.4-2.6,17.1c0,1.1,0.5,2.2,0.8,3.3
	c3.2-0.6,5.5-3.9,9-3.3l-3,4.2c0.9,0.6,1.9,1.1,2.9,1.6"/>
<path class="st0" d="M185.7,382.6c29.8-9.4,61.5-13,92.6-9.6c25.7,2.7,50.9,9.8,74.4,20.3c11.6,5.3,22.8,11.4,33.7,17.8
	c-7.6,7.8-16,15.7-26.9,18.7c-12.7,3.4-27,2.2-38.2-5.1c-9-5.8-15.8-14.1-23.5-21.4c-7.6-7.4-16.3-13.9-26.3-17.3
	c-8.9-3-18.5-4.4-27.9-3c-10.5,1.3-20.5,5.4-28.9,11.8c-9.3,6.8-16.7,15.8-25.2,23.5c-5.9,5.4-12.8,9.9-20.7,11.9
	c-9.4,2.3-19.6,2-28.8-1.3c-8.3-3-15-8.9-21.2-15C139.8,400.8,162.1,389.8,185.7,382.6L185.7,382.6z"/>
<path class="st0" d="M225.6,406.5c9.2-7,21.3-10.4,32.7-8.3c8,1.3,15.4,5.2,21.6,10.4c9.4,7.8,16.9,17.6,26.7,25
	c8.2,6.4,17.9,10.8,28.2,12.3c14,2.1,28.9,0.5,41.5-6.2c9.3-4.9,17-12.3,24.3-19.7c6.3,4.1,12.4,8.5,18.5,12.9
	c-9.6,3.7-17.8,10-25.1,17.2c-6.8,6.6-13.1,13.9-20.8,19.5c-8.7,6.5-19.9,9.1-30.7,8.3c-8.7-0.5-17.2-3.7-24.1-8.9
	c-10.1-7.7-17.8-18-27.8-25.8c-8.3-6.7-18.2-11.6-28.7-13.3c-13-2.4-26.7-0.1-38.4,6c-9.9,5.1-17.9,13.1-25.6,21
	c-7.3,7.5-15.1,15.1-25.2,18.7c-10.1,3.5-21.4,3.5-31.6,0.1c-10.2-3.5-18.1-11.2-25.4-18.8c-8.1-8.4-16.6-16.7-27.3-21.9
	c5.5-4.1,11.1-8.1,16.8-12c6.5,6.5,13.5,12.8,21.8,17.1c12.8,6.7,28,8.2,42.2,5.8c11.3-1.9,21.8-7.3,30.4-14.8
	C208.7,423.3,216,413.7,225.6,406.5L225.6,406.5z"/>
<path class="st0" d="M243.8,444.7c11.1-2.3,22.8,0.7,32,7.2c7.9,5.6,14.3,13,21.2,19.7c7.2,7.1,15.3,13.4,24.7,17.1
	c11.2,4.5,23.7,5.3,35.6,3.6c10.1-1.5,19.7-5.7,27.8-11.9c9.7-7.2,17.2-16.7,26.3-24.6c6.3-5.6,14-9.7,22.4-11.2
	c11.9,9.6,23.1,20,33.8,30.9c1.2,1.2,2.2,2.7,3.2,4.2c-11.6-4.7-24.4-5.7-36.6-3.8c-9.3,1.4-18.1,5.1-25.7,10.5
	c-8.8,6.1-15.8,14.2-23.5,21.7c-6.8,6.8-14.9,12.7-24.4,14.9c-11.5,2.5-24.1,1.5-34.3-4.4c-8.2-4.7-14.6-11.8-21.3-18.5
	c-6.8-6.9-14.1-13.6-22.8-18.1c-9.5-5-20.4-7.1-31-6.9c-12.1-0.2-24.3,2.7-34.5,9.2c-11.2,6.8-19.5,17.1-29,25.9
	c-6.5,6.1-14.2,11.1-23,13c-11.7,2.4-24.5,1.1-34.8-5.3c-10-6.2-17.4-15.7-26-23.6c-7.4-7-16.1-13-26-16.1
	c-11.9-3.8-24.8-4-36.9-1.3c10.4-11.1,21.8-21.2,33.5-31c9.1,2.9,16.6,9,23.2,15.7c8.5,8.5,16.7,17.6,27.3,23.6
	c12.9,7.5,28.4,9.3,43,7.2c10.4-1.5,20.2-6,28.4-12.4c9.5-7.2,16.9-16.6,25.9-24.3C228.4,450.2,235.7,446.1,243.8,444.7L243.8,444.7
	z"/>
<path class="st0" d="M39,493.5c10.1-4.1,21.5-4.4,31.9-1.5c9.9,2.8,17.8,9.7,24.8,16.9c8,8.1,15.9,16.6,25.9,22.3
	c13,7.7,28.8,9.6,43.5,7.3c9.7-1.5,19-5.5,26.9-11.3c9.8-7.1,17.4-16.6,26.4-24.6c6.9-6.2,15.4-10.9,24.7-12
	c9.8-1.2,20.1-0.6,29.1,3.8c9.2,4.4,16.2,11.9,23.2,19.1c7.1,7.3,14.7,14.4,23.9,19.1c11.8,6.2,25.6,7.9,38.8,6.3
	c9.4-1.1,18.4-4.4,26.3-9.7c9.1-5.9,16.3-14.1,24-21.7c6.8-6.8,14.6-13.1,24-15.7c12.2-3.2,25.8-2.1,36.7,4.4
	c-8.6,8.9-17.8,17.2-27.1,25.4c-11.6-0.2-23.4,2.6-33.3,8.6c-9.6,5.7-17.3,14-25.1,21.9c-6.3,6.4-13.2,12.6-21.7,15.8
	c-9.2,3.5-19.5,3.8-29.1,1.5c-9.3-2.2-17.1-8.1-23.8-14.6c-7.8-7.6-15-15.9-24.1-22.1c-7.9-5.5-17.1-9.1-26.6-10.4
	c-10-1.5-20.4,0-29.8,3.5c-10.2,3.9-18.9,10.8-26.5,18.5c-7.4,7.2-14.2,15.3-23.1,20.6c-10.6,6.3-23.8,7.4-35.6,4.6
	c-9.4-2.3-17.3-8.3-24.1-15c-8.8-8.6-17-18.1-27.8-24.4c-6.9-4.2-14.7-6.5-22.5-7.8c-7.1-5.7-13.6-12-20.3-18.2
	C45.2,500.6,41.2,497.7,39,493.5L39,493.5z"/>
<path class="st0" d="M57.7,529.2c2.1,1.9,4.3,3.7,6.5,5.5c-6.1,7.4-12.3,14.8-18.4,22.2c4.5,3.8,9.2,7.4,13.9,10.9
	c-1.2,1.6-2.4,3.3-3.7,4.9c-7.3-5.5-14.5-11.3-21.4-17.3C42.3,546.7,50,538,57.7,529.2L57.7,529.2z"/>
<path class="st0" d="M241.7,537.8c10.8-2.5,22.5,0.1,31.7,6.2c7,4.6,12.7,10.7,18.5,16.6c6.5,6.6,13.3,13,21.4,17.5
	c7.7,4.4,16.4,6.8,25.1,7.7c-11.3,4.2-22.8,7.7-34.5,10.3c-6.1-6.2-12.3-12.5-19.5-17.4c-7.5-5.2-16.3-8.6-25.3-9.9
	c-11.4-1.9-23.4,0-33.9,4.8c-10.5,4.7-19,12.7-26.9,20.8c-10-2.5-19.7-5.8-29.3-9.5c9.6-1.8,18.7-6.1,26.4-12.2
	c9.3-7.1,16.7-16.4,25.5-24C226.8,543.4,233.9,539.4,241.7,537.8L241.7,537.8z"/>
<path class="st0" d="M444.3,550c3.3-6,9.4-9.8,15.6-12.2l1.5,5.7c-3.5,1.4-7.3,2.8-9.7,5.9c-1,0.9-0.3,2.6,1,2.6
	c4.8-0.5,9-3.7,13.9-3.8c4.1-0.1,7.4,4.2,6.6,8.2c-0.6,2.9-2.5,5.3-4.5,7.4c-3.6,3.5-7.8,6.5-12.6,8.1c-1.2-1.6-2.4-3.2-3.6-4.8
	c4.5-1.6,9.2-3.5,12.4-7.2c1.2-1.1,0.9-3.4-0.9-3.5c-5,0.4-9.4,3.7-14.5,3.4C444.9,559.4,442,553.9,444.3,550L444.3,550z"/>
<path class="st0" d="M80,565.3c0.1-1.9,0.3-3.8,0.4-5.7c5.3,1.1,10.3,3.5,14.5,6.9c2.1,1.8,4,4.2,4.2,7c0.2,2.1-0.6,4.1-1.6,5.8
	c-2.9,5-5.8,10-8.7,15c-1.8-1.1-3.6-2.1-5.5-3.2c0.1-1.4,0.3-2.7,0.4-4.1c-2.9,0.6-6,0.7-8.7-0.7c-3.1-1.5-6.3-3.6-7.8-6.8
	c-2.3-4.7,1.8-11.3,7.2-10.8c5.7,0.5,10.4,4.2,15.3,6.9c0.9-1.6,2-3.7,0.5-5.3C87.8,567.3,83.7,566.4,80,565.3L80,565.3z
	 M75.9,580.3c1.8,2.2,5,3.8,7.9,3c1.9-0.5,2.8-2.5,3.8-4c-2.7-1.5-5.2-3.5-8.4-3.9C76.8,575,74.3,578.1,75.9,580.3z"/>
<path class="st0" d="M411.5,572.7c3.7-4.9,8.8-9,14.8-10.9c3.4-1.2,7.5-0.2,9.7,2.9c3.6,5.1,7,10.2,10.6,15.3
	c-1.8,1.2-3.5,2.4-5.4,3.6c-1.2-0.7-2.3-1.4-3.5-2.1c-0.7,3.1-2.3,6.1-4.9,8c-2.8,2.1-6.2,4-9.8,3.5c-3.4-0.4-5.9-3.5-6.5-6.6
	c-0.5-2.4,0.6-4.7,2.1-6.4c3.2-3.7,7.5-6.1,11.4-8.9c-1-1.4-2.4-3.3-4.5-2.8c-3.9,1.1-6.5,4.4-9.1,7.3
	C414.8,574.6,413.2,573.6,411.5,572.7L411.5,572.7z M425,581c-1.1,2,0.7,5.3,3.2,4.7c2.8-0.7,5.6-3,6.1-6c0.2-1.9-1.1-3.4-2-5
	C429.7,576.5,426.5,578,425,581L425,581z"/>
<path class="st0" d="M386.4,572.1l7.2-3.6c5.7,11,11.4,22,17.1,33.1c-2.7,1.4-5.4,2.7-8.1,4C397.2,594.4,391.8,583.2,386.4,572.1z"
	/>
<path class="st0" d="M367.6,580.4c2.5-1,4.9-2,7.3-3.1c4.9,11.4,9.9,22.8,14.8,34.2c-2.7,1.2-5.5,2.3-8.3,3.4L367.6,580.4
	L367.6,580.4z"/>
<path class="st0" d="M108.4,588.7c-1.7-3.6,0.7-8.5,4.6-9.2c3.1-0.6,6.3,0.4,9.1,1.7c3.6,1.6,6.8,4,9.7,6.7c-1.5,1.3-3,2.6-4.5,3.8
	c-2.7-2.5-5.4-5.3-9.1-6.1c-1.4-0.5-2.6,1.2-1.7,2.4c2.5,4,7.1,6.4,8.9,10.8c1.7,4.5-2.4,9.8-7.2,9.4c-6.9-0.5-13.3-4.2-18.2-8.9
	c0.9-1.8,1.9-3.6,2.8-5.4c3.2,3.3,6.8,6.6,11.4,7.9c1.5,0.6,3.5-0.8,2.7-2.4C114.7,595.5,110.4,593,108.4,588.7L108.4,588.7z"/>
<path class="st0" d="M241.2,584.2c10.7-2.6,22.2-0.2,31.4,5.6c4.3,2.8,8.3,6,11.7,9.8c-20.3,2.8-41,2.5-61.3-0.4
	c-2-0.3-4.1-0.5-6.1-0.7C223.6,591.8,231.8,586.2,241.2,584.2L241.2,584.2z"/>
<path class="st0" d="M352.5,586c1.8-0.7,4.2-0.2,4.8,1.9c2.3,4.7-7.2,8-8.2,2.8C348.2,588.3,350.4,586.4,352.5,586L352.5,586z"/>
<path class="st0" d="M163.4,589.4c3.5,1.1,7,2.2,10.5,3.2c0.4,9.5,1.1,19,2.1,28.4c5.6-7.8,10.9-15.8,15.9-23.9
	c3.6,0.8,7.1,1.5,10.7,2.1c-2.1,11.5-4.2,22.9-6.2,34.4c-2.7-0.5-5.5-1-8.2-1.6c1.9-9.1,3.6-18.1,6-27.1
	c-5.4,8.3-10.7,16.7-16.5,24.8c-2.7-0.6-5.3-1.3-8-2c-1-9.8-1.5-19.6-2-29.4c-2.1,9-4.8,17.9-7.5,26.7c-2.6-0.8-5.1-1.6-7.7-2.4
	C156.2,611.6,159.8,600.5,163.4,589.4z"/>
<path class="st0" d="M351.6,597.3c2.6-0.8,5.2-1.7,7.8-2.6c3,8.4,5.9,16.8,8.9,25.2c-2.8,1-5.6,1.9-8.4,2.9
	C357.1,614.3,354.4,605.8,351.6,597.3L351.6,597.3z"/>
<path class="st0" d="M335.1,602.2c2.7-0.7,5.5-1.5,8.2-2.3c-1.1,9.7-2.6,19.3-4.4,28.9c-2.9,0.7-5.9,1.4-8.8,2.1
	c-5.9-7.7-11.6-15.7-17-23.8c2.8-0.5,5.6-1.1,8.3-1.7c2.8,4.3,5.6,8.6,8.6,12.8c1.3,1.9,2.3,3.9,3.1,6
	C332.7,616.8,334.7,609.5,335.1,602.2L335.1,602.2z"/>
<path class="st0" d="M281.4,613.2c5.2-2.8,11.2-4.2,17.1-3.5c3.4,0.4,6.7,2.8,7.4,6.3c1.2,6.3,2,12.6,3.1,18.9c-2,0.3-4,0.6-6.1,0.9
	c-0.8-1.2-1.5-2.3-2.2-3.4c-1.6,1.9-3.5,3.9-6,4.6c-3.5,1-7.5,1.5-10.9-0.2s-4.6-6.1-3.6-9.6c0.6-2.2,2.6-3.7,4.6-4.6
	c4.2-1.9,8.9-2.1,13.4-2.9c-0.3-1.8-0.8-4.1-3-4.5c-3.8-0.6-7.4,1.2-10.8,2.7C283.5,616.3,282.5,614.7,281.4,613.2z M290,626.4
	c-1.9,1.3-1.8,4.9,0.6,5.7c2.7,0.6,6.1-0.2,7.8-2.5c1.2-1.6,0.6-3.7,0.5-5.5C295.8,624.5,292.5,624.5,290,626.4z"/>
<path class="st0" d="M215.1,611.4c5.7-1.6,12-1.8,17.6,0.3c3.4,1.2,5.9,4.5,5.7,8.2c-0.2,6.2-0.7,12.5-1,18.7
	c-2-0.1-4.1-0.3-6.1-0.4c-0.5-1.3-1-2.6-1.4-3.8c-2.1,1.6-4.4,3.1-7.1,3.2c-3.6,0.2-7.6-0.2-10.5-2.6s-3.1-7-1.3-10.1
	c1.2-2.1,3.6-3.1,5.8-3.5c4.4-0.8,8.9-0.1,13.4,0.1c0.1-1.8,0.1-4.2-1.9-5c-3.6-1.4-7.5-0.4-11.2,0.3
	C216.4,614.9,215.7,613.2,215.1,611.4z M220.9,626c-2.3,0.8-3.2,4.6-0.8,5.8c2.6,1.2,6.1,1.1,8.2-1c1.3-1.4,1.2-3.4,1.5-5.2
	C226.8,625.5,223.7,624.9,220.9,626z"/>
<path class="st0" d="M259,617c2.5-3.9,7.2-6.1,11.8-5.4l-0.3,6.9c-2.7-0.1-5.7-0.1-8.1,1.5c-1.7,1.1-2.7,3.1-2.7,5.1
	c0,4.7,0.1,9.3,0.1,14H251c0.2-8.9,0.3-17.8,0.4-26.8c2,0,4.1,0,6.1,0.1C258.1,613.9,258.6,615.5,259,617L259,617z"/>
</svg>
